<svg width="318" height="45" viewBox="0 0 318 45" fill="none" xmlns="http://www.w3.org/2000/svg">
<path d="M20.592 44.64C14.192 44.64 9.15733 42.656 5.488 38.688C1.86133 34.6773 0.0480001 29.3013 0.0480001 22.56C0.0480001 15.8187 1.86133 10.464 5.488 6.496C9.15733 2.48533 14.192 0.48 20.592 0.48C26.864 0.48 31.6853 2.016 35.056 5.088C38.4267 8.16 40.112 12.384 40.112 17.76V18.336H29.872V18.016C29.872 14.944 29.168 12.8107 27.76 11.616C26.352 10.3787 23.9413 9.76 20.528 9.76C16.7733 9.76 14.128 10.656 12.592 12.448C11.056 14.24 10.288 17.6107 10.288 22.56C10.288 27.5093 11.056 30.88 12.592 32.672C14.128 34.464 16.7733 35.36 20.528 35.36C23.9413 35.36 26.352 34.7627 27.76 33.568C29.168 32.3307 29.872 30.176 29.872 27.104V26.784H40.112V27.36C40.112 32.736 38.4267 36.96 35.056 40.032C31.6853 43.104 26.864 44.64 20.592 44.64ZM60.4915 44.64C55.3288 44.64 51.2755 43.1467 48.3315 40.16C45.4302 37.1307 43.9795 33.056 43.9795 27.936C43.9795 22.7733 45.4302 18.6987 48.3315 15.712C51.2755 12.6827 55.3288 11.168 60.4915 11.168C65.6115 11.168 69.6008 12.6827 72.4595 15.712C75.3608 18.6987 76.8115 22.7733 76.8115 27.936C76.8115 33.056 75.3608 37.1307 72.4595 40.16C69.6008 43.1467 65.6115 44.64 60.4915 44.64ZM60.4915 36.192C63.0942 36.192 64.9075 35.5947 65.9315 34.4C66.9555 33.2053 67.4675 31.0507 67.4675 27.936C67.4675 24.8213 66.9555 22.6667 65.9315 21.472C64.9075 20.2347 63.0942 19.616 60.4915 19.616C57.8462 19.616 56.0115 20.2347 54.9875 21.472C53.9635 22.6667 53.4515 24.8213 53.4515 27.936C53.4515 31.0507 53.9635 33.2053 54.9875 34.4C56.0115 35.5947 57.8462 36.192 60.4915 36.192ZM90.218 8.16H80.81L80.682 1.12H90.218V8.16ZM90.41 44H80.81V11.808H90.41V44ZM105.293 44H95.7565V11.808H104.653V17.44H105.037C106.999 13.2587 110.605 11.168 115.853 11.168C119.821 11.168 122.807 12.32 124.812 14.624C126.818 16.928 127.821 19.9147 127.821 23.584V44H118.221V25.504C118.221 23.2427 117.751 21.664 116.813 20.768C115.917 19.872 114.274 19.424 111.885 19.424C109.538 19.424 107.853 19.8933 106.829 20.832C105.805 21.728 105.293 23.3707 105.293 25.76V44ZM142.98 44H133.444V1.12H142.98V44ZM163.545 44.64C158.169 44.64 154.137 43.1893 151.449 40.288C148.761 37.344 147.417 33.248 147.417 28C147.417 22.8373 148.868 18.7413 151.769 15.712C154.67 12.6827 158.617 11.168 163.609 11.168C168.388 11.168 172.142 12.4693 174.873 15.072C177.604 17.632 178.969 21.0453 178.969 25.312C178.969 26.7627 178.82 28.3413 178.521 30.048H156.441C156.526 32.3093 157.102 33.9307 158.169 34.912C159.236 35.8507 161.07 36.32 163.673 36.32C167.342 36.32 169.177 35.3813 169.177 33.504V33.12H178.649V33.76C178.649 37.1733 177.284 39.84 174.553 41.76C171.865 43.68 168.196 44.64 163.545 44.64ZM168.217 20.384C167.15 19.488 165.508 19.04 163.289 19.04C161.07 19.04 159.428 19.4667 158.361 20.32C157.337 21.1733 156.718 22.4747 156.505 24.224H169.753C169.838 22.56 169.326 21.28 168.217 20.384ZM192.593 8.16H183.185L183.057 1.12H192.593V8.16ZM192.785 44H183.185V11.808H192.785V44ZM212.733 44.64C207.357 44.64 203.325 43.1893 200.637 40.288C197.949 37.344 196.605 33.248 196.605 28C196.605 22.8373 198.055 18.7413 200.957 15.712C203.858 12.6827 207.805 11.168 212.797 11.168C217.575 11.168 221.33 12.4693 224.061 15.072C226.791 17.632 228.157 21.0453 228.157 25.312C228.157 26.7627 228.007 28.3413 227.708 30.048H205.629C205.714 32.3093 206.29 33.9307 207.357 34.912C208.423 35.8507 210.258 36.32 212.861 36.32C216.53 36.32 218.365 35.3813 218.365 33.504V33.12H227.837V33.76C227.837 37.1733 226.471 39.84 223.741 41.76C221.053 43.68 217.383 44.64 212.733 44.64ZM217.405 20.384C216.338 19.488 214.695 19.04 212.477 19.04C210.258 19.04 208.615 19.4667 207.549 20.32C206.525 21.1733 205.906 22.4747 205.693 24.224H218.941C219.026 22.56 218.514 21.28 217.405 20.384ZM243.643 44H231.611V32.672H243.643V44ZM258.168 44H248.632V11.808H257.528V17.44H257.912C259.874 13.2587 263.48 11.168 268.728 11.168C272.696 11.168 275.682 12.32 277.688 14.624C279.693 16.928 280.696 19.9147 280.696 23.584V44H271.096V25.504C271.096 23.2427 270.626 21.664 269.688 20.768C268.792 19.872 267.149 19.424 264.76 19.424C262.413 19.424 260.728 19.8933 259.704 20.832C258.68 21.728 258.168 23.3707 258.168 25.76V44ZM301.492 44.64C296.329 44.64 292.276 43.1467 289.332 40.16C286.43 37.1307 284.98 33.056 284.98 27.936C284.98 22.7733 286.43 18.6987 289.332 15.712C292.276 12.6827 296.329 11.168 301.492 11.168C306.612 11.168 310.601 12.6827 313.46 15.712C316.361 18.6987 317.812 22.7733 317.812 27.936C317.812 33.056 316.361 37.1307 313.46 40.16C310.601 43.1467 306.612 44.64 301.492 44.64ZM301.492 36.192C304.094 36.192 305.908 35.5947 306.932 34.4C307.956 33.2053 308.468 31.0507 308.468 27.936C308.468 24.8213 307.956 22.6667 306.932 21.472C305.908 20.2347 304.094 19.616 301.492 19.616C298.846 19.616 297.012 20.2347 295.988 21.472C294.964 22.6667 294.452 24.8213 294.452 27.936C294.452 31.0507 294.964 33.2053 295.988 34.4C297.012 35.5947 298.846 36.192 301.492 36.192Z" fill="#001A4C"/>
</svg>
