<svg width="398" height="68" viewBox="0 0 398 68" fill="none" xmlns="http://www.w3.org/2000/svg">
<path d="M16.7814 53.535C7.51328 48.184 4.33779 36.333 9.68873 27.0649L15.6259 16.7814C20.9768 7.51328 32.8279 4.3378 42.096 9.68873V9.68873L16.7814 53.535V53.535Z" fill="#00C688"/>
<path d="M56.8685 40.2403L32.3104 26.0617L41.7628 9.68962L49.9488 14.4158C58.9909 19.6363 62.0889 31.1983 56.8685 40.2403V40.2403Z" fill="#001A4C"/>
<path d="M50.8197 51.3986L26.2615 37.22L16.8091 53.592L24.9952 58.3182C34.0372 63.5387 45.5992 60.4406 50.8197 51.3986V51.3986Z" fill="#001A4C"/>
<path d="M91.592 60.64C85.192 60.64 80.1573 58.656 76.488 54.688C72.8613 50.6773 71.048 45.3013 71.048 38.56C71.048 31.8187 72.8613 26.464 76.488 22.496C80.1573 18.4853 85.192 16.48 91.592 16.48C97.864 16.48 102.685 18.016 106.056 21.088C109.427 24.16 111.112 28.384 111.112 33.76V34.336H100.872V34.016C100.872 30.944 100.168 28.8107 98.76 27.616C97.352 26.3787 94.9413 25.76 91.528 25.76C87.7733 25.76 85.128 26.656 83.592 28.448C82.056 30.24 81.288 33.6107 81.288 38.56C81.288 43.5093 82.056 46.88 83.592 48.672C85.128 50.464 87.7733 51.36 91.528 51.36C94.9413 51.36 97.352 50.7627 98.76 49.568C100.168 48.3307 100.872 46.176 100.872 43.104V42.784H111.112V43.36C111.112 48.736 109.427 52.96 106.056 56.032C102.685 59.104 97.864 60.64 91.592 60.64ZM131.492 60.64C126.329 60.64 122.276 59.1467 119.332 56.16C116.43 53.1307 114.98 49.056 114.98 43.936C114.98 38.7733 116.43 34.6987 119.332 31.712C122.276 28.6827 126.329 27.168 131.492 27.168C136.612 27.168 140.601 28.6827 143.46 31.712C146.361 34.6987 147.812 38.7733 147.812 43.936C147.812 49.056 146.361 53.1307 143.46 56.16C140.601 59.1467 136.612 60.64 131.492 60.64ZM131.492 52.192C134.094 52.192 135.908 51.5947 136.932 50.4C137.956 49.2053 138.468 47.0507 138.468 43.936C138.468 40.8213 137.956 38.6667 136.932 37.472C135.908 36.2347 134.094 35.616 131.492 35.616C128.846 35.616 127.012 36.2347 125.988 37.472C124.964 38.6667 124.452 40.8213 124.452 43.936C124.452 47.0507 124.964 49.2053 125.988 50.4C127.012 51.5947 128.846 52.192 131.492 52.192ZM161.218 24.16H151.81L151.682 17.12H161.218V24.16ZM161.41 60H151.81V27.808H161.41V60ZM176.293 60H166.757V27.808H175.653V33.44H176.037C177.999 29.2587 181.605 27.168 186.853 27.168C190.821 27.168 193.807 28.32 195.812 30.624C197.818 32.928 198.821 35.9147 198.821 39.584V60H189.221V41.504C189.221 39.2427 188.751 37.664 187.813 36.768C186.917 35.872 185.274 35.424 182.885 35.424C180.538 35.424 178.853 35.8933 177.829 36.832C176.805 37.728 176.293 39.3707 176.293 41.76V60ZM213.98 60H204.444V17.12H213.98V60ZM234.545 60.64C229.169 60.64 225.137 59.1893 222.449 56.288C219.761 53.344 218.417 49.248 218.417 44C218.417 38.8373 219.868 34.7413 222.769 31.712C225.67 28.6827 229.617 27.168 234.609 27.168C239.388 27.168 243.142 28.4693 245.873 31.072C248.604 33.632 249.969 37.0453 249.969 41.312C249.969 42.7627 249.82 44.3413 249.521 46.048H227.441C227.526 48.3093 228.102 49.9307 229.169 50.912C230.236 51.8507 232.07 52.32 234.673 52.32C238.342 52.32 240.177 51.3813 240.177 49.504V49.12H249.649V49.76C249.649 53.1733 248.284 55.84 245.553 57.76C242.865 59.68 239.196 60.64 234.545 60.64ZM239.217 36.384C238.15 35.488 236.508 35.04 234.289 35.04C232.07 35.04 230.428 35.4667 229.361 36.32C228.337 37.1733 227.718 38.4747 227.505 40.224H240.753C240.838 38.56 240.326 37.28 239.217 36.384ZM263.593 24.16H254.185L254.057 17.12H263.593V24.16ZM263.785 60H254.185V27.808H263.785V60ZM283.733 60.64C278.357 60.64 274.325 59.1893 271.637 56.288C268.949 53.344 267.605 49.248 267.605 44C267.605 38.8373 269.055 34.7413 271.957 31.712C274.858 28.6827 278.805 27.168 283.797 27.168C288.575 27.168 292.33 28.4693 295.061 31.072C297.791 33.632 299.157 37.0453 299.157 41.312C299.157 42.7627 299.007 44.3413 298.708 46.048H276.629C276.714 48.3093 277.29 49.9307 278.357 50.912C279.423 51.8507 281.258 52.32 283.861 52.32C287.53 52.32 289.365 51.3813 289.365 49.504V49.12H298.837V49.76C298.837 53.1733 297.471 55.84 294.741 57.76C292.053 59.68 288.383 60.64 283.733 60.64ZM288.405 36.384C287.338 35.488 285.695 35.04 283.477 35.04C281.258 35.04 279.615 35.4667 278.549 36.32C277.525 37.1733 276.906 38.4747 276.693 40.224H289.941C290.026 38.56 289.514 37.28 288.405 36.384ZM314.643 60H302.611V48.672H314.643V60ZM329.168 60H319.632V27.808H328.528V33.44H328.912C330.874 29.2587 334.48 27.168 339.728 27.168C343.696 27.168 346.682 28.32 348.688 30.624C350.693 32.928 351.696 35.9147 351.696 39.584V60H342.096V41.504C342.096 39.2427 341.626 37.664 340.688 36.768C339.792 35.872 338.149 35.424 335.76 35.424C333.413 35.424 331.728 35.8933 330.704 36.832C329.68 37.728 329.168 39.3707 329.168 41.76V60ZM372.492 60.64C367.329 60.64 363.276 59.1467 360.332 56.16C357.43 53.1307 355.98 49.056 355.98 43.936C355.98 38.7733 357.43 34.6987 360.332 31.712C363.276 28.6827 367.329 27.168 372.492 27.168C377.612 27.168 381.601 28.6827 384.46 31.712C387.361 34.6987 388.812 38.7733 388.812 43.936C388.812 49.056 387.361 53.1307 384.46 56.16C381.601 59.1467 377.612 60.64 372.492 60.64ZM372.492 52.192C375.094 52.192 376.908 51.5947 377.932 50.4C378.956 49.2053 379.468 47.0507 379.468 43.936C379.468 40.8213 378.956 38.6667 377.932 37.472C376.908 36.2347 375.094 35.616 372.492 35.616C369.846 35.616 368.012 36.2347 366.988 37.472C365.964 38.6667 365.452 40.8213 365.452 43.936C365.452 47.0507 365.964 49.2053 366.988 50.4C368.012 51.5947 369.846 52.192 372.492 52.192Z" fill="#001A4C"/>
</svg>
