<svg width="300" height="300" viewBox="0 0 300 300" fill="none" xmlns="http://www.w3.org/2000/svg">
<rect width="300" height="300" fill="transparent"/>
<path d="M148.344 12L28.8359 81V219L148.344 288L267.852 219V81L148.344 12ZM148.344 21.66L256.536 84.312L179.256 126.816L148.068 108.6L116.88 126.54L40.1519 84.036L148.344 21.66ZM176.496 161.04L151.104 147.516V116.604L176.496 131.232V161.04V161.04ZM37.1159 214.308V88.728L114.396 131.232V167.112L115.776 167.94L145.584 185.052L145.86 276.684L37.1159 214.308ZM148.068 180.36L122.676 165.732L148.068 152.208L173.46 165.732L148.068 180.36Z" fill="black"/>
</svg>
